<mxfile host="65bd71144e">
    <diagram id="dVeRCkxlaKYTZBHeK1zC" name="Page-1">
        <mxGraphModel dx="1520" dy="419" grid="1" gridSize="10" guides="1" tooltips="1" connect="1" arrows="1" fold="1" page="1" pageScale="1" pageWidth="850" pageHeight="1100" math="0" shadow="0">
            <root>
                <mxCell id="0"/>
                <mxCell id="1" parent="0"/>
                <mxCell id="2" value="Stack Memory" style="swimlane;whiteSpace=wrap;html=1;" parent="1" vertex="1">
                    <mxGeometry x="390" y="50" width="200" height="210" as="geometry"/>
                </mxCell>
                <mxCell id="3" value="recursiveMethod(4) (stacked with sout execution pending)" style="rounded=0;whiteSpace=wrap;html=1;" parent="2" vertex="1">
                    <mxGeometry y="180" width="200" height="30" as="geometry"/>
                </mxCell>
                <mxCell id="4" value="recursiveMethod(3)" style="rounded=0;whiteSpace=wrap;html=1;" parent="2" vertex="1">
                    <mxGeometry y="150" width="200" height="30" as="geometry"/>
                </mxCell>
                <mxCell id="5" value="recursiveMethod(2)" style="rounded=0;whiteSpace=wrap;html=1;" parent="2" vertex="1">
                    <mxGeometry y="120" width="200" height="30" as="geometry"/>
                </mxCell>
                <mxCell id="6" value="recursiveMethod(1)" style="rounded=0;whiteSpace=wrap;html=1;" parent="2" vertex="1">
                    <mxGeometry y="90" width="200" height="30" as="geometry"/>
                </mxCell>
                <mxCell id="7" value="N/A - nothing is stacked&amp;nbsp;" style="rounded=0;whiteSpace=wrap;html=1;" parent="2" vertex="1">
                    <mxGeometry y="60" width="200" height="30" as="geometry"/>
                </mxCell>
                <mxCell id="8" value="" style="rounded=0;whiteSpace=wrap;html=1;" parent="2" vertex="1">
                    <mxGeometry y="30" width="200" height="30" as="geometry"/>
                </mxCell>
                <mxCell id="12" style="edgeStyle=none;html=1;entryX=0;entryY=1;entryDx=0;entryDy=0;" parent="1" source="17" target="7" edge="1">
                    <mxGeometry relative="1" as="geometry">
                        <Array as="points">
                            <mxPoint x="350" y="110"/>
                        </Array>
                        <mxPoint x="306.19000000000005" y="113.24006928631206" as="sourcePoint"/>
                    </mxGeometry>
                </mxCell>
                <mxCell id="16" value="so the final execution will be like - pop each stack method and executes its following sentence, which in this case is System.out.println(n);" style="text;html=1;align=center;verticalAlign=middle;resizable=0;points=[];autosize=1;strokeColor=none;fillColor=none;" parent="1" vertex="1">
                    <mxGeometry x="-270" y="290" width="750" height="30" as="geometry"/>
                </mxCell>
                <mxCell id="17" value="" style="shape=image;verticalLabelPosition=bottom;labelBackgroundColor=default;verticalAlign=top;aspect=fixed;imageAspect=0;image=data:image/png,iVBORw0KGgoAAAANSUhEUgAAAnEAAADoCAYAAACAe7KaAAAAAXNSR0IArs4c6QAAAARnQU1BAACxjwv8YQUAAAAJcEhZcwAADsMAAA7DAcdvqGQAAFu+SURBVHhe7d15XFT1+sDxj8AMIAMiopIIYo57LmS5YOq1qS5eS66aa4W5a1lWVzKXyGupmWZpmlEuaYXX1LxY/uRW5DW7mBqZ+zYmgpSK7IPgDODvjxlgOGwDAjr6vF+v8yq/z3fOnDlzmHnmu516LVq0uIEQQgghhLArDsoCIYQQQghx+5MkTgghhBDCDkkSJ4QQQghhhySJE0IIIYSwQ5LECSGEEELYIUnihBBCCCHskCRxQgghhBB2SJI4IYQQQgg7JEmcEEIIIYQdkiROCCGEEMIOSRJXq/zwGBHFg6/vov3D/ZVBUcIdeq78+tNs43K6bArHq68yKOqCLnwWMTFL2PVhP/yVQVH7WvYj4pslxHw7i3mPKoN1S+Mxn81/mc+AesqIRd9RtNq0nM4bn0fjpwzaIdUEVutWMlmlDIg7xd2dxN0zn46v76LHUxOUkTJMIOD1XfSw3ip93F/xaqPGAfDo2B9nZVhYuUPP1cNdaewCODbCq1cbZbQCj+H75XK6vPOYMiCqRIuuqxcA6rad+JsyLGpfcCe0roCjF4H9tMpoFemIiFlCjPUWoVNWKptqAkv6PIiXA6jK+eZT9+qAxhHqubShwcPKqP3RqDSoXVrx5GO1lMiphrIgaCs7B+3iu8G7WN1MWUHUtnIuZVEz/kPqGSMFGEn9dTfXleHbRhc8hkXSdfLcGk2eXB9ez30zV+KhDJTJXs5VFf3wG8m5gOkyKfvOKKOi1umJ+S0VAMOxX/k/ZbgWTYlQJBtWW9RbN5vM2GjQML74ahERU5WBOhR9FH0OYLzC/j16ZbRu1PsrC/oMRcs5tu4NZ0e+soKZcd8JDPlwI/sEaT8oo9XRHM2CcNqvHoVaGaoDhmvvM33vQVJVrRgUOIEOygo3pT8L+k2ge1M31I7KmKgrksTZbA3xbw5g/5sD2P/mNi4rw2VKJHNzCAffDOHs/3Yrg7cRL1x9GuKsrtmPGdU9PrjZvEt7OVdVlLibP0Knc/iphaT9qAyKuhAzfxE6XRgh02NJUAbvdL5N8WngpCytW+f3MPnxMHQDlrDwO2WwqmKYrAtDpwtDp4vG1pTw4bYT6d7AiD5uMREmZdTKj5s4N2o6R8ZGcC1RGayO+rj4NEKtro1mMNsYMhfz6els1L5P8I/m7ZXh6nPrjdYdyDrM+ujRPLp9AFP/UFYStU2SOCGEqDUX2FKUdBRvIXNtTT/ETXN6jqfaucHl3XxwqUYyMzuTza5TWzlhVOPfcQyDlOHqclCjBi6dXUVkTpoyKupIvRYtWtxQFt6OnIO30vVBiF/zOoYuL9Mq0A9XJygwJJKw8z0unzlpqTmBgNeH0jT9IL99EG7VLdefpi+8SoDnOU6+OY1MLGPiJjxIvbj3Oal/kBa6B2nkrcahIJuUuE2cj95G2a3uluf4fRv7v1ijDBbtV2NVZDj4Dsejy2thaojzg68T8FB7PDTmzNp09Ry/b5tJ+pVsZWXbOHTB7S/P4/+gHx5qoABykg5y7t+LyU4379N8Tt2Ujyzh8s4BxP9q+YdDF1x7jcH/gVZ4eJjHr+XnppEat40LP1jO1f0r6TGwVcmdKJQ4F7fyXHUbRauZPdEk7+XY81sV77UHDd57kwDfFBIXzyc1zlLcsSde4x7jnmaNcHKEG/kmsv+I44+PNpFztvjR6plv0r6bdUdyJkkrX+dqma1xKhwHP0mzAd1o4KnCEfN+cVRRL34nh1/9VvmAyj06mqjXArm0NYx/7OvHvDAdgT6uQB6px6JZOGcPhwyFlZ0IHD2cF0d0wl/jBORhuKQnZm0kK37IKblfQNO1OzOm6ejh72XuRsnPIeHANyyZe4ATljpTIpYwTJvF/rfnM9uq9UX3Vjize7mj3xrG5NXWZals0X3E/vGjmTGoEz4aID+LE5s/YtbaKxQdKk4Ejh7Mi4Pvx9/L0sJkSGL/5kgWRlrX0xERE0yJTkt9NLrJMdYlaJ6dzJZntHBiOwNeiC0Rg04sjQolUK3ni2ERrLPs3OvhYBZN7YfW8vzG1Avs3/4lS0s8f+E5uMAW3Uo+siovzYnAwcGMe/J+tI3dLec0j9SEX/ny3S1sKfxoK+KKbvpoxj2sxUdTeAx6di1fy4qf8sp+7UoZh1g4JJKis9FYy4tzB6Nr3wSN5fkNyXpiVm+w7NOiCtdV4XtdrPT1UKSxlinTg9F19cXL1fKaMq6g/+FLZq28UOK8FrO8zjLeV2vdtZEs6OTGidjRTL9c9meE5p3ltAqwLonn3PD3Sj2v+e8aklauJLtXKP5dm+PiCDeyL/LH9nVc3ZFiVa/igSRXd04naYOytBKPfsELrwXBTwv57PRfGDwiiOYaIP86Fw9sZMvchaWOuZAt56FK3Oez/ZEHubRfWuBuJTtriVPhPeRt7nvQnMABOGj8CBj2Ok3vUda1nZPfSNoP601jb3NigoMbjR6cQLtH6mKWZHs8RnxK5+D2eFqSEgCVdyvaPjpKUddWfngMm899vS0JHOZ32tXvQe4bWN19Al0n0vnh9nhaEjgAR5eGNO49Ae1fHlRUrg01fK7i9pKWAjTugEdnRcyvDw18gZSzZBYmcK0fw3f2KPz8zAkcQD1HFRq/nrSZ9zKa1tY7sJ3ThJdoN6onXpYEDst+y5tAVxUabSjr333c8kUL4ITXfY8z+xXfojodpk5h4fhASwJnrqPxaUfInDAWBpfsitMED2P9O8Po09KSwAE4uuLfK5inb2rmoSvad2ezdLQlgQNwdKfD6PHM6FVcy3/SFBaO716cwAFofOkxfjhPF5fYzLD1KHojqLWdeEoZHBRIaw0Y9Uf50vLNqAkeTcQcXVECB6D2akGf8S/z7lTzBIqq68eUaf3o4GNJ4AAcnfBq2Z0pcwfTo0RdL6Z8OIvZg9oVJXAAai8tIc/0K1HTZpp2LPxwMiH3WRI4zM+v8WlHyD9nl7oGsPG6qgrd9NEM69WiKIEDUDdoQofBU1j0TOnnt10XdM0agukc+2sicQHAFa+xYbTpZk7gAOq5Ncf36XE0qKMZrZqu05g43pLAATg607zXRIZND1LULHbg4m9cQo222RPKUPXUxAeUuGl2lsSp0XipyT7zNb8teZL9C17j2G9pFDg05J4Hhior28y5iQ+uhnOcXjeJ/W8+yS9bDmMoAE2Xv1L4EVUlf4ZzvHD83JqD5f4yAnC4/3natFHjkHuJ+G1vcXDBAPYvmMSvm/7D5Wq3UJtnevLnbn5d8qT5OBZP48jXh0m1Opjr0ZbYm+8Qnw6kH+S3onF/5q2oFQ4gz0D6sf9wbPUkS3w0v24znyvPjn9FBfDrtKLHnvwd4BwnFfss0cp2S8/VRdLiLnKDRnj2b14iUu+vHfAE0uJ2Ym6H8KDBcwPxVkHOuW85+fIMDg+fzuFFW0lKNoEqAN8RXYoeb1z8ujk+fDon4zKt9qzgN5BmjzXHKT+FPza/x5Gx0zk8fAZHwndTrZek4NO1E16GC0QtmU+ILoxhy49iALw6BdEHoKWO6YNaoDYmsWvZIobpwtCFzGfpjgsYcKfHiEesluXQMntSd7wcwXA6hqXPhaPThTHsuY1siUuq8L2rXBMCu7qb9zt2FjpdOCvisgAvOgYXtyn9rVsL1Fwh5g3z69Hpwpm87BsOJSlbDG0cO2WI5fujOaAOoOczJUMhD2nRkMPx72Itr03L7EmBeJHFoU9XMjbE/PyzPz3EJaMT2uDHCSm5C6AFw0pNbAhnYYmEN4+s5FPsWl24zzCGzdrOoVTApxMDrHIz/6mjCWnrap4kUHgMIfOZt3oP+tTCFjOr1771AgD6rYouXatWuJDw0fTwAuOlQ6ybZX5PQ8auJep0DpS6Bswqva6AmLnzi55v4b4sxR4UjKkk7Pum6JrShcxnaXQSRpzo0Ku3snYVPIh/IyBZzw5lyIrhVfPf6uHh0zkXr4wqqXB1U5k/B6ZO5/DUJcQnmoDmeDxiHvtW/Pe/iqQsICuOk5b9F25VboWz4qTxwMWgZ9eCx3lT9zgf7EwkD2jeabiyarHcc1zKAXWjDtz0xFvHBxkd0AENRoxWDbWi7tlZEgeGuPc5tvlDrudmQ8Fhsnf+QHIBOPu3NycR1ZF+kCMfTCM9KRHIJv/UmyTGA/X98WiirFyT/PDs2gpHskmInMblE/+joAAoSMSkf5/4/yujq9YmBgqMQMP2eAVYvgCN58j57TXORlV3n8CR1zi9/X2yrxaOK0nDdOI/XM00j4+o3Yupds7VjU0/c9UEHm16FrWCgQceHZtTz3SGq5ssCZjfw5aWuZ/5fdZOjEmW0dGH9nL1bXPC5dKyS5VnoDkO6UZDIC3mfZK3xXMjG8DEjVPXyunKr6LUQyx9aiUrorMwAKk7YjmeATiqUAOa4PZo1Xmc2LySpTtTSQUwZLFr+UfEnAf8tcXLcjwZRGADMJ6PZtZz0ew6bU6cUk8f5aNX1970oPXUfWt56rlodiXkATlEfafHACVmvmUZ8yyJXXtaawBy0O/cw4zQtZV0WZYvavtRUnFC2926FaMTfdq6QvJRthR++z/anY4NIHXPWmZ8doEEA0AO+z+L5PPfskATQGC1GsP2MGPkWpZuLdwnpB6IZddpc+JTPN/IneG9WqAmi/3L32N24TEYsti79Rsmz9pTtEfbBdKngysY9WyZHMkXB8zvqSHhFCue22LuGrW+BgpVcl1VVcz8lYydu6fomsKQxa4lR80TURxvoiXO3R8fwJB57iZ/ZJSUF7+Tc7N2YkwBUi6ScSQJAOcmLZVVa4dRzzevPcovPxwHjpO+LJaLAF6N8VHWLXKAPzMBdy+q2WkATGD14F18N2g+Y+91I/X8V0RcUdYRdal2v3drQfal/5QsKDhHzs0mEakJXC+wLsjmeko2oMbqm70WdMe1IZB+gtSkmmrqB/gXSTtPkq32IWDY2zw4KxLtwFfR+DRUVqwahy64Pfwx7cN28WDRenmvEuCprFgbaulcZf9MerypZJeqpSs1P/4I1wqfqqUHaiA7Ps7SMmcl8TBZyYB7oyp/gak86wOZXDtTQWvdTTCcPsCuEt9eemYPKW6J6eHrBTjR4ZlFitaiRYS0BHDHq5v5kf7+TVEDCXExRWPfak4WZ/ecKvlF+10kIYpJAF98+DUnDE749BrG0qhFbFkfyuxntFS3IxOAfbEcT1Z0qVq6UlNPxLK/sEzrhQbw6vdSqSVDZnR3B1xppGyyKnNig3JcmBOBo4exfkvJ96DkeDIALT5eQIaemOhSV2E1eeHuCiToi8b8FTvKoQRz0uyv6Cqv7LqqssZaXlweRtQu6/Naybi+qrhhVJbclPTj39bMj6zqSojjUKmxkpVJJLumLhtx26h23iNqguqmfmRWJP/YKxxbEs6xHw6Tlu5Gw/v703FiJF1HTKhmXtoej1GWcXYut+LCqa1zZeLanhPkWnWpmrtSc7i8Z6+yco1zcqlWh/0t0chqvNItczKWF0LCmb16D4cSMtH4dkL37GS2fDONKdVePSGJdfuSSnSpmrtSk9j7mbmFpTaZxyQqxvmVyRXn6v3x3jRjzeZAJVmPyavqryAbqVU3lebfIdxQ3/Q4tjVM3T6AwV+/z67LRrxaPsHYBso6oi7V/XdxTfPujZcnkJ1KRcv/4Nsbz/rKwvI8iEdLNyALU00MTCpXItcNgIcfbtbTM2uK8SDZ/3sN/eoQDi75kPgrRpzbPIHPvcqKFvU15XdJez7BPfeqITcR/brCMXFW4+nK5YaqRlrqavFcffsTKVmFXaqWrtSUw6RZTwpNN3dvugV0o9RXbesHcG8MJCeiHJlVGWN6JuCKunHJcscxHamR01aJs6k5QA6HVitbiwq3RSy0TOw4lGzu3vPRBpaYTWwzTTv6tKyJpDWH/Vu/YcbYRQwYMp8VP6VidG1ByIRAZUWbJaw9ir6oS9XclWo8cYB1560qJWdiBC7tLB7rVXKbxQufWdW3iS9/f6gFavJIiF5bNCau7HFkV0gxAA18CaxiwqrxKm/CQY45QfPXMk75pmoCCfR3AuNlzlanp9ZWg/sR6AWkHi0ak2feKhjLaKusBC4Bane/UuP66pSLe+nPjTr3ED4NgKxUrCbSV4sh7z8sO30SI25oKl7gQNQyu0vinFzb4+AA4IaD73MEPNUbDyDl+DbMPaLnyEkHPDvQuF0XwA3HdvNpPbo3nuX9ylNpcHSxXIkuvdE88TIB3lCQeJD0XGXlmvQ/MuOzwcGHVuNX4ulXuDRHQ1Talwj4W2W39SrHPXO596n5ePgVniug4ASGiyZAjUr5YY0eUzagboVPn78WP8aaq8b8IZSbyrWUVPP59x5Ko8ETuaecmfSmTCPgg0//kajKO/c2q6VzBcAZ0o+lmLtUu/VE4wuGM3tLdpse+ZmMFKBRTwLe6IOTryXdDexD41f60xDIPPNzlbtYjPpL5KPC+6+huPiqoFFz6s+cTbuBAXXyoZ+wL55UXAl8ZhoznmyBf6lrw8p3ehIATdfhRLwVRB9/8xFq/Nsx5Z3xzLbqcjubnAW40zG4O4Ea87IkCyPG0MfnZl6VlnlrprFwUic6WJ4bQx7HjyZhBNSu5VyItjDsYf+JPHOX6qOdaK3JQx93oGT3brQevRF8Hp3C0kmd0CoS7+pxReMKkEOKPolUA2j8WzAsbDxTuiq7U/UcOp8DNGHA29N4caCXpRvZlR5PPk7EojIG5FkST59uwTzVvawE+gCH9Hmg1jLsg8cZ0NZcR+PfjhnvDybQMjs3SvmwmqQxj6MzZlxBfz7HPFN5YD8WruldA92pB0lIAbz80d10K1R1XDJ/tqpa4j2tA/VuZcLj0gV/NzCmnKBGbkZhMlKbDbTCNna2TlzZfwGm37dx+Is1RV+grgO30vl+Rd2CbLKvueGmKb1OXJnfW7nnOLl6GpmFn+KVrH9mvbZZRcdKqbXX/krTqS8RUFZrf3nr0FWmwtd1kuPvvoKhxBhAUP1lPV37+JTK6ouPdSTNw8bg66KoABQUgEOmcl0+oMMy7h9aesLJbXWuCvkNxP/dx3C4dBkPHxMX/rGEDOW6oP1D0U7tRllHeyPlZ07N2IQxG6AN3mufx1f5HVzEeg2qNnh//Dy+ima3vOQTpLt0wDvl5taJY19EJQvLOjHgrdnMKDX+ykKxBleHqdN498kWZYz9U6wBNiiUqOmdSl2DBkMOGo1rGevEUf4aYkW0LPxqMj3K7L7J48Snr/PCZ5bUe+o0Yp5soaxUxFDWeRkUStR0LYakPHwaxLMiZGOp5KX811967TVb14l7avkixt1XXnKrOK+adixcP54eZf0NlLVemiaID7YMpoPygK2Ptb2OiGXBaJV1AHIusCVsJR8Vjr+y+bqq6L3CMlbQcl66Pc4X7/Qrf0C+9euqxvta+fpoj+H75UC8lcWFsuI4OX6j+YeCZf23Umu8jXmZLgMDyI5bhX5xydvrOU0Pp0PvRqVW5Ci1D1tY1onz1G/mzcmvWQXe5pmYEQRkxPLJkKe4ZBUpVPl5qCJZJ+62oPzOtiv5uWkk/28DhzcVJ3AAObve4/SZNPItiYrp6jlOr53IOb3id0Pa//jz10QyrxmL6hbkGcn8/X8cs07galPBf7j8yTucPnaJ7MLDK4CcSyc5/d0mRWUb/fke+uiTpGcaLa2TUGDMJv3Y1/y2vHQCB2D67zuc+F8imeX+tPoXFzd8zZ9Xi/dpykwk4et3OFvelPwTr3P0/06SbqDoMTelNs5VocS9ZCRBA5+mEH+4dAIHsHsj+uXfcjk5p+h6u2FKIXXfJo4XJXBVdYarS7ZyKTmHG5gXzs08tZPTr9bV/WPz2DV3CQt3nOJSRuWjnk+s/ojZaw+QULSchWV5iD3RfG6dgO2IZOl2PamFJ8qYin5HBGM/09/Er3c9S1fGcOJSFsbC/ebnYbh0iqgF84sTuOracYizBld8fN0xHI0tlcBR3uu/SV/M+Yio06nFr8mYRULcNyzcYV4epATDKWY/F0HUsSsYik6k5Rx8VkafpyGWWQuiOXGpgo7+kzH8Y9YW9p63Oob8HC4di2HhWKsErrbEfcOCjw+RYCg8p3nmxYtXbmF/hqJuNRyI/4mEG2o6tH2e7spgHchbvoqz++IxVDjep5bVG8qwVg3h2kliaiKBE7cNu2uJK9EyI4QQQlTIjQHtN/BKOxUJB19j/MXazkpvPw+3iWRWRzf0+6YxtaZuPWZpiTMceY1nzh1WRkUdseuWOCGEEKJi2ew69QkHstT4d32ZF5TjO+5wGo/5TO7QEGPS1zV771iTAQPg0+55XvHwKzV0QtQNSeKEEELc2W78h0UHDpLq5MegPm/z5F2SyGlcnmNJnwfxyjzIyoNranZ9x9yvOXQZUPsxQPcx2wfvYnUzZSVR2ySJE0IIccczZIYz/oeDpOYb7ppFbw35Rrh+jq17w9lV4wOnTrJs/4fsSkorHksp6pzdjIkTQgghhBDFpCVOCCGEEMIOSRInhBBCCGGH7CKJa9myJZ6edXETIiGEEEII+2AXSZwQQgghhChJkjghhBBCCDskSZwQQgghhB2SJE4IIYQQwg5JElermvFU8BoiJ2/gw+69lMEa0J+CZ46Q162/MnDnah6J6blIbsiVK4QQ4i4nX4W1qi8dW5jv7+Kp7UVvZVihvvsgXg1ZzYaJG4icbNlGv1LO4/y4MWA5plbO4OChDN653FzAOwjjtCokcpo55I87gjE8ntx58eR1U1YQQggh7I+tX4OiWn7k+AUTYCL55D7+pwxbcxjEzCeH0tWnPipb3pVu6zH18MBh/1KcDkYpo3ZH5duOQQtn8u72xXy4YRRtlRUKnR6Caqeeel5B5P11ojJahonkT5iIyd+DAlvOqxBCCGEn7OK2Wy1btiQtLY309HRl6I7h22UpS3o2xnRpD+t3/Yv/Gq8pqxRzWUzeKyPIN8SiXjGaesq4HVF1uo8nQv9OP607RfekzvyN5WM2cbpkVSv9KRizHmPLTFRrBuJ4MVFZoViTSEzPBZGffhz1xldxSD2urCGEEELYJWmbuE0EaNyAaxyPXVdxAgfcePTv5Kmv47Rz5i1P4BoOnMfnn79LaDtlxDZBT4/iEa07KtMVDn6+jwrSMSu7cdi5G8cCD/Iem6EMluRk+c/BBZLACSGEuKNIElcbGr/CmsIxbZZtTe8amtjgMJ/8Ts5wNRaHc2WnPD5vHeb1mMM8+mgI7d76kZe/Pc/rMed5PepHBoyoqUkQbgS98BHrnnuQhi5uNGzopqxgkz1xelL0P7B86rus35aJSVmhPFfDcTwNN/yDyPdWBsuQG6ssEUIIIeyaJHG30FMDi5O85++rD9Sn65CSyd/C9ooHte9GgRocj/+7klY4D+6btphhvfzQOFqKNH48MOmf9GypqFpl7RjyVgRzgv3gciyrp0xh+b5sZSXbfLme18P+w+kUZaAyiTgcO44DjSnoFKIMFpMrXAghxB1KvuJqQ/IyJkSMYXTEGEZ/dZiKO0er5oa/HwVk4nC28skMGo0zhtNRfDKyJW+OfI3vzgP40Xqgn7Kq7dyCmB6xiPGBDck+tZl5Lyzgm6vKSnXkXCIOQH7zIGXETD2Cgh73kQ+QqwwKIYQQ9k2SuFvoi52WRC9iDKuOXQOu8dtXxWWjI8Yw+2TJx9zw9gAyqPdHyfKy5Oo388lzL3EpGUjezM9xegA8fYKVVW3TLpR318/hseaQGL2Asf/YyOFqNsDViFw99a4BjfwoOTtnMXnz4smdvRhjRw8cj27ESYbDCSGEuMNIEmeXrkOBsqy0S7+9hkFZWF3NHmfhGyNo5wZpe5Yz5YNYbmX+ZpYBRmWZEEIIcXeQJM4uOYOLsqyW/fENs/+5mVPZ0LDfdNa9+hjVm8pQw8q8gmfiNC8Al7cXoL54nfxOI8i/6XGAQgghxO2lzK9AcfuqdzUTaMINX2WkDpzayD/GLuDbi9C033TWvxtKl1uZyTncxw0PICWx7EkeuZ/gsOc4Djhzw0sZFEIIIeybJHF2pl5CIg44UxAwQhmqG9mxLJ88i7WH0nBrN4J5H8zhcVuW+KgN7bUUAI4XK1g+JCe37ARPCCGEsHOSxNWC3r1XFy8TMqQL9YH6900pf9mQqjgZh4MR8tsHKwbz16VTfDV3MguiE6FpEFM/WsHUztVskhv7HB9uX2zZ/sq9AB5dmV5YVu4tuPwouK8jBSTjcLTymbpCCCHEnUaSOHtTEI7j0evgHUR+x5tYKuSmZRP7wRTGfXiQtFwT2cY6nuagmUNBW6iXEIvjrVriRAghhLiF5N6p9kiznLwXQ8i7FovzitHUs2Gm6p0liIJR6zG2vo5qTWccK1pupVkkpklBsGc6qt3SYieEEOLOIS1x9sgwHafvEnHwDCJvwERl9M7XbT55bZ1xPPhBxQkcwLXrAOT3mEFBeYsCCyGEEHZIkjh7dTAcp3PXyX9wBnm9Q5XRO1fLSEwDtXBuM6pdnyijpaVvxPEi4OKHcUIkufPiyeumrCSEEELYH0ni7NZuHD6bgvr0dchNVAbvXCYgNRbVFzOVkXLsxmHjUtTnMnG467qdhRBC3MlkTJwQQgghhB2SljghhBBCCDskSZwQQgghhB2SJK6GtWzZEk9PT2WxEEIIIUSNkiROCCGEEMIOSRInhBCVcHZ2rpVNCCFuhiRxQgghhBB2SJI4IYQQQgg7JEmcEKLKdOGziIlZwq4P++GvDN4B/B7L5uDn2UzUKCN3tr4PBbP9lVF8+fdmNFcGhahFfo9duyv/5m6WJHFCiCrSouvqBYC6bSf+pgzXoikRS4iJsd6mMUVZ6Wa1u876aVdp7AjOLspg7Xh26Ci2vzKK7UP9yvx33fCgb7uGAKjuvZdHlOFaVPR6i7aHeFZZ6Y7lx7uvjGL7hI70VYbsXaeHSr6fyn9b0XoU4Ox9lTmfSCJXFZLECejYE693w2m/aTldvlxOl01LafVuKJrersqataQ5mgXhtF89CrUydLfQrefeVadpNloZuB3pifktFQDDsV/5P2W4Orr144Mti9jyT60yUrc0eUS+kYwWTzb/042VV5UVasfFdIP5f/LzATBcNwKQnZ5hXa2WZfLjqTQAsk+d5XtlWFSDC88OCubL0DstQXOkW5t2fDBhONtfGcW7nZRxi6uZZAMUWO55eN2ICSArk4sla7J7q4bpX3lyvWEaL8zIoy5/vtgzSeLudv1D0b4xCj+/RqgdLWWOKjR+3Wg1blgdJVX1cfFphFqtUgbuHk398HB3tps/yJj5i9DpwgiZHkuCMlgdXr74ezkVX4Pl+GhyGDqdeduiV0Zv3sQZaQQ1dEK/w4OZp5TR2mO0fMllZ5iTuSvZueZAHd/v98efohm8bBNP/9/lUl+ytenTbZsYvMy8RV1QRu2ZmuZNGqKqmw/SOuBI346BfDB5KHMfD6S5RyV/sAXmHyUYMvgdICMbI8CNfPN/FXZ/7EF0vCMePdNY/JgyKspiL98ZolY0p+GT3XDDREbcVo6/PIPDw6dzeOzrHN+wm+R0k/IBQty5AnIJ7XkN/vBkwZp6ymitMlpa4IS4rXncy+i/tqO5myPZv8cSdTRTWaOkfMwtbzarx/RPPUnmGkHDcglShkUp9Vq0aHFDWXi7admyJWlpaaSnpytDtx17OlZog/fa5/F1v8j5sUvIzFbGC6mov2ARrVtD8uYZ/LFNEX5sHG0ndEF1divH5uw1l7k1xXXSaJo9EIBGBWAiN+kICWs2kXPc/Getnvkm7bt5lNiV0tWd00naYFXQeyDNxvTH21NFPSAvPZ4/d0WSuv2ypYLlNaXs5Njx1miD2+BMChdXL8IQGEar3k1R5cbz+5vvYThrtV9btZ9Do2dG4HOPBypHKMi/zrU/Y0laN5acopahxTTfOALvrFhOPD/a6hfnRLxXzaG5ux596CMYCusVxctQah+2mRKxhGHaC2wJ+Rr1O6MZoPUyt3Kl6olavpYVP+WVrNv4EAuHbEcTNp6nH22BlyNgSGLv2gjm7cix1NQRERNMiQ5PfTS6yTHWJWD9/COjUf9zWDnPr2XhV5Pp0UD5aGsX2KJbyUfKYuvnKCOueyuc2b1g79sfcbbfaIZ390VjeU37Izcye7O5O9jaiDkpLO5j5HjkPQzcWDLm7OwMrR9n6kAtzpmH2fzpbv4saiVzo8vQsfT3g8Qf1rPtSMk/JOf2IYx7tCXEf8fGHcfN3UsW169fN/9Pp4fY/qgfl3/ezpTYXJo/0I8P+jbj9+828Y+jhbX9ePeVh7j39z2M/Z+K1wc+wL1eaijIJz1+PxE7LvBztVruLPu1LrrwE4O3JVqXFFNpmPRoL/pqvXFzAgqMpMf/wvqdF/ixat/YZXp26ChCWiQStewnPlUGARxceLJfD/7eqZn5+fMMXNYfIfK7Mp6/CsfaSduOSQ91pLmXpdks+w/iYvbznj63xHtmi779B/JyYMWfbcXvreX8X/2Ft/6dTUhIDzo1din/fVVpePahrvTr0AxPZ0cgH1NWGr8f2Mebhw1Fx2o+hnx+/uK/nOtgdb6y/yDuu3289XtVP1UAXHh5aBBuh2N5T59LN8vrLHmdWit+beEbz3LUuRUfPd+dphVdX8D89/8ktJ2a3fMaMfZnZdSiXxhrn++JZ/rPfPjyEmKq+ibdIaQl7q52jfxcgOY0mdETRzdlvJCJa7+eJx8VXvf3UQZx6d4GF3K4vMeSwOGBZm4YbXoVJnAAKlx8u9FmTP/iB1ZV/1C00x+jsSWBA3DyDMBvVBi+YxqVrOveE/+BbXBxhHqOjfB+MoyWvZuiBuq5BOAzpE3J+rbQLqb5jIn4NTcncAAOjs5omven7azv0dzi4VyleaFbP42QtpYECsBLS8icKUxpqaiqdmdARDgvBlsSOACNL32mhjKu2oOMmzBgzeTSzx82mhBFzdrhSuC0lxnXy5LAYX5NPSaF8qLy9VNAcBsDGN2IVSRwRc5+w7+PZIBHF4L/ck9RsVvnYPr4OXE9YTfRigQOQNu+Jc4O4HxvN7qY54OUdvQnBi/bxJRYczfqxV/2MHhZOV+MTbux8qkgcwIH4OCI571BTNOZJyXULg9mPvMEA9pZkiIABzWe9wYx6aGKk5aaoebZwQN5KtCSkAA4aWjaLoiXn+nIIyW+0Ww/1uYdgnh9UGBxAgfg1oxugx5gmHXF2qRuxbRx/cwJHOW/r30f6kdIoJ8lgQNwROXuTVvdX3m91MeaG50GKc6XWzO6DerFpGqtNZ3Le9t+4C2bE9tE/rFsE4M3nuUowPVzTFm2qcIEDiD8gBtg4L6/lP+rpE9QJzwdgUY9GfB3ZfTuIUncXe0iaVv3kmECt46j6Lg6HJ+p3XBS5EMAbPuJy9ngGNCZ+iWSvW40aOMKKYdJ+7awrCcNWqng0t7iLtqp8zm94zAZ2cU/f42LXzfHhq8iKQvIiuPk8OmWMvNW3ArXBu+nu+FGJpc2v8eRsdM5PPw1jm+OI8OkwvsvIZSYSNioEe7pcZycupNUwNWnKarEnRxb/DMGwK1RgHVtGwTRYOIIvFWQcz6KEzP78FtoAL8t3cjFq9dBpaX5kGnKB1ViJhdDA8z7iTY3412Ntvy7cKtGK1wxd7y88ri0bzuzR4ahGxnBroQ8ULegz2D3klVdtQRqKa4bsoSo83mg1tKjaLJFDJMt49F0umgqH5LmikaTx6V9W5gREkbI2EgOZQCaAHoEA+iZPcSyv7cPYQAM+yKKxryZt9KtbLZzQqNxwnA6hoUjw9CNfJ9d5/MAXwIHFn6jFTLh1xT4w5nycjiAP/8bzeF0aNA5mP73AG5dCO7jh1P2cb75d8lWtkL6k+e5XgDXE49zqnQDYNW5aXAzXSZux3aeXraJF7aZn9ctwK+aM0otX7TLNjF42U/msUvlaepHJ08wndrDPz4wP+bpVV/z6U/nSFO2gtWC5p2687cWakxJB1gV8aXl+Xey63cDeHYmJNBqjFYVjvWR9i1QcZkfP/2Sp5dtYvCyL/nH5p84ermsd7RyP+7eaTmfO4nLBDKP8F7ROTZvpRJ0j4Z4ksbRb7YztqL31ZTBxUM/Fb3+we9/yaqf/sCEmrYdmlnXBNS4uavJ/j2W9z7YxOAPtvN9ohEcmtGpnaLq7SRWTSLQ2K/8i2pv7FHS84HMX/nx38ro3UOSuLvd7q3Ev7iK86cuc13ViKb9Q+m4einaRQNRl0jmDpN2JAVUbWj4pNUEhIFd8HKBtLidFHfQ5XDDBDRqg2d3S9NDSgq5n68j/p+7ix9bFX174ulu/pK/vC2eG9kAOeRt28gfxzLBrSWaXtYPyOFy1CaMKYVjw1NIivyW/LgULEPGq6Z5KJ73AKm7+f2N6Rj/tPySPBLO1WXRpAEuLYLqaCKIrfJI2L6Ep+bGsj8ZSNazNPIoBsBHe3+puvqtVnUNV1gRl2QOVTJ2uSKp+zYwee4BDhnAkHCIXSeyAHcalWoJqx1GfTSznosmJhlITmKp5TV5+SiSeF0eTYDMZEcqbCMo+JPdOw6QWtCALgOC6R/cBz/HDA5/8x2J5TQaXD8ZxeoV77N6Wxw1kcNRkEbcV8WtIRcvxHMqE3D3qP213XKMGACVbwCPeJovjOzrBqIOHOCFnyoZH1UDHmnjh8p0jqgt5/g+2zyOMPt6Jh/vOMJFoLlf0+LKVThW82zghrTt4s29DgD5/J6USPgXh8ru0q0NBWnEbY4m/Ewu6RW8rz/+9BMv7E4sev0U5PP9gd/N161j6T9W04WfePPflu5jUy6rTpmHnjT0qouW02qKdyI5B2icx0RlrNCeJYwfPpShYxewo3q59h1BkjgBKWfIDF/I6Qmvc3LHYdKyVbi1eox2772MpnVxtbytcaQBjToWd4nWD+qA2nSGq5usPxT3cnnHGXJUTfEdNZvOm97Ef+6T1L+ZJUtaNsIN0PQKMy+DYrW1D/QAXFFb/wjNOkHaTqtfcVnxZMdZxauqhQdqIPtCbOmBuhd/IPMq4N7kNkvicvjztCJt+O4ylwAclS1RSRxarai7eiU6XRiTV5cstl0WZ/ecwrJ4xi2R8FsMJ5SFFcm3YUJDaizb/ptInkc7uvg5kXFoJ7v/VFaqRYZEfqzL57OWeZatP1/G5N6CAc8MZ/vkR3m3fwsG1Ek+4EHzhoCqFU++pFhX7qUgc6Lj4UbRahdVONatu/dxOktN08CHmf/icNaPCuTlNho8lRVrk63vq0rDpL89yucvmJf3KFx3rcSYRiuJZxI5rSy87dUjt9QHrSiLJHGiWHYmxs/XkTBtIefjTdRzCcB3RJfieOJeMpKgXkAXGvgBbn3wDFCRe/Inril+CeVvXsWZqUs4s/sw6VmueHbuQ+vpb9N+0WM307AjRK1ydrVtnpeHlwdFQ7JcqjW4yG59H/sDY1ftJOrQBS7TkHsDg5g0YTjr+3pQ7rDaW8TmY83+g9c++ZK3th/g6OVM3Jq2o+/jT7B+ahDP3k4vysGDuYXj/AoH5t6RbPs7FJLEibJkXybz+xPkAi4eVt0TZJLx8xnyaU6Dv3rA453xUqWQvOuwVR0rKRfJWb2OhEkzOPLyRpKSTahbPYz3QGVFCxf3oi/GUq5mYATSYgrH0Sm3MmbN1qSM6+QDbi2CKLWanXYAHt7A1UQK53GWqW8QHpXcAUDdoHaH/Gue1eIPGA010rFX49QNmiiL6kaME1cA58Z5lS9rcE9/gjs34Prv3/Hd2eu4dXycoffdTt/0tS/7eiaf7o5lSsSXjF33E6ezHfF8IJBnazWfzSYtG8g5xaeK8WVFW+EAeutH2Xys+cSdP0f4pmiGr/iSj3+5ism1BX97qML547ZxdaNGrmxtOzp7Aumn+GKdZUycLWMZ7Y0mHz8PINmJT5QxUYIkcXezvqPwf28cHgPbUK9o/Jsr9Xr1wTukAy5Adkp8ycdsNk9waNhtIF7d2uCQFEeaspuy7yj83g1Fo2tKvcLvttx4sv/MAVxxKjWJ7hKmbEDVEu9pHYofY+2/Z8kwQcO+02j8dBer460pfXhp1b/Ytm0bG98ZQ1tl+Fg0GamAV38CZs1HdY9lPfHO82kyLZiGQObZaMyjVPTkZgHu99HoiRDAD8cnImk5pj8epTJAi9RMjIDHfZNw69xRGVWo5FitqBt7YR6V6EqPZ0YTMUKLmhyO7zmkrHpr6TMxAGptb2YHu1PtCbHVpiLxMuBtJLiiJ3duR8jfu9DAlMiPMcc5/v1uzl93xq9PMB3Lum4tS4xMffElpg7qeNu1VFVZh0DW/60VIY3VRV2Nppw0ElON5oksivkyNSufnxPTwLUdw/7eihAvx4rPp83H6sHMoQ8xt2ND2hYmdgVwOvEyRkDlejODJCyJp8qPR3p60Pxmv3Gd1agAU1Ym57PzAUfu9fVj7tDO5Xan2qVB1/EDkhPL+8AEHpjA8i+2se3LjSwcWdGn4J1N1omrYfZ0rPQNRTutW7kfhDeyD3N22jpyFF2lheu73QBSds4gaYNi8EJF+zWd4eykVaW6X52mh9Ohd6OipUMKWa8T5zjmZdoNDCi7tS4rjpPjN2IsXCeOwn8/hu+XA/Euilv+Hb+Tw68WTaeFfnPY+OL9lmM+z46hM7Beng6AvpG0nhBU5usqSI3l1OzRGK+Z/+3y6mna3af8qZ9JzjUPXOsXrhNnpf4cmn0wkSbKz6yy1omz4VjNa6gpCi1S961l7NzisWoVrbdWwtRpxDzZQllaxLAvgpC55jmr5n1msf/t+cz+rriOef02d/RblWPtfJn9xUvofKzLUKwTV8Y6ddYyDrFwSCQxFT2P5TVYH2uhSteJw42OQ0J51N+xxHpwbp2HMvZhP5zS44j8dC9XSj6UjkNe4lF/gFQObNxIrFUjaNE6cTaxrLmVeYT31hznx6JyD+ZOGEg3jwrWVquIZY268mQf2snTuy1jXiuqe/UX3tp4FuVvusqVsU6dNevX6+DB3GcH0q2cwWol1iuz+VgLz5+yEoCR099s47UzynLbdQt6lLk9S7fmlVonzpb31aM1H417gKZlJYMFQGLx+muFa9WVWsPNcl5KvK82q+hcmZV6vmqwaZ240KVsC7HMkEr/mSXjl1Be1TtZWZeCuFv8uIX4Dbu5nJyJ0WrB+LzcFFLj/s2pGaUTOADj9ycwAPVMZ0jbWsbo0x+3kPDtCTKzTEUjG26YMsk89S0nXyydwAHkLV/F2X3xGMrYXaH8DSs5telnUtNNlhavGrTnR369ZH7y7HNHy/4w+HE0Z1dHcflqZtHzF5gySTnwCcetEjiA3JUL+P18cT1Thp7fV4/iwoVyvrSvLeCPD0vuu1y2HGsZjBlXOLEjgslWCdztI4mFb21h7/nUEtdiXdr8hRuJGOmoy2GEMgg06TOcR/2dyUvcW2I9uOwj0exNzAPPbgy0Wj+uUI0vMXIrHf+FLw4kkn7d6k26nsbFAz8Q/nl1ErgqKsjkrc++Ztepq2SbKrlQbD7WTFZGxXI6ORNT4QzjAiPZyWfZ9dm/byqBA4iL3cOnBxJJr+x4bZF5lvd2HOGi1cxUU+o5vt/yA3G33x919bTLpX87IyS68UlFH24bo/i5sK3EwdxCeTeSlrgaZk/HWm0Dx9F2TBc4so7Tb5UzHk7cUuW1hImKTXwzmTkP5pEY5UOf1cXtwuaWuJpXtZY4Ie50N1i84jIj2jgRu8Sb0aVvBlPEs5WOZ1+ZSB8fFaaTkYycW5uDom9f0hInqsAVp6HjaPV0F1xMF/lzsyRw4s7yyeKGxGYa8RuQwfLbeTFUIe5A/Sdl8vc2eWT+7MnMchO4MSzdto217zxHHx8V5J5n18a7M4FDkjhhmzZ4r11Oly/fpuOILmgcTVz9dh2Z1bn3qBC3M4MTM9d4k6nOIOQNA3MkkROiTnR8PJvlQ9LhXGOmz3OqeNFtgNx0Lv6yg/dfnMGGm+zytmeSxIkqycu6SNKmJSRtSFGGhLgjJH7rxsBl3iTnO3DlojIqhKgNmUa4ftWbpTOdqfi+PhuYMXQoQ58az/RFG9h7l38VyZi4GmZPxyqEsI2MiRNC3I6kJU4IISpx/fr1WtmEEOJmSBInhBBCCGGHJImrYefPn5euVCGEEELUOknihBBCCCHskCRxQgghhBB2SJI4IYQQQgg7JEmcEEIIIYQdkiROCCGEEMIOyWK/tWIxefNGkAc4ZCbiuDMcx9MVr0Fti6cGbmBgc+uSC+yMCOcL66K6oplD/vAR5Df3oMABnL4OwClOWUkIIYQQtUVa4mpZgYcfphHLyW+mjNizieRPmIjJ35zACSGEEKLuyVdwrZiJ07wAXBbORH00Exw8KOgYqqxUZV/sHMPoCPO281be07FJfwo8gfTjqFcMxGWetMIJIYQQdU2SuNpk3IzDzlicAJxq596Lt4ST5T8HF+CQelwZFUIIIUQdkCSutuVmKEtK8Wz0DAtHrCFy8gYiJ29gw4hFvNyyA/WVFavCoQN/776ID8eZ9xk5cQNrQl7h7+5l7FXVi2eDV7BhoqXuuBUs6T6IjpVdHbmxyhIhhBBC1JHKvqZFTSnnTNdv+goLhzxCgKeqqEzl2YwHH3uFue21JerarhlPPfYKwwObUbRbB6jv04XhfQeVrOrQl1eHTuGxFg1QFR6jqgG+gUN5dcBIWpesbVbOaxFCCCFE3ZGv41qXCUbI7xRKQfMgRawX03Rd8CSD4999QNgnYxgd8SLvfHeYZKOKgAeG8pjiEbbpS8cWKkjex3vrp5rH0a0L5+P/niD5WsmavXuNomsDSD+9rajuc//axm/JJlTN+zFcOSFDPYKCHveRD5CriAkhhBCizkgSV+sW4PT1cRyd/DBOiCR3Xjx53Syhxr1o4w7ph9ey4PdfSCoAyOC335exXX8N6vvS0avk3mxzDZMJaKClv2+AuVvWdIH/nl7M9N3/sqrXi94t6kP6L3z83x0cNJozvPSMHbzzvxNcoz6+/g9Y6i4mb148ubMXY+zogePRjTjJcDghhBDilpEkri4YrytLzLw9qQ94Br5SNB6ucJvUoT5QH09P5YNssYPPf9RzzakxXR+byZoJK1jSdwp/b9RAUa8Fnu6A5wO8qnj+yL93oT7g5q5sihNCCCHE7UCSuFo3jfwn7ic/T1+ny3Gc1b/JhE+X8cWBEyRl1ce3fS+GP7mCDcHljHOrlGXZlLcXoL54nfxOI8hvqawjhBBCiLoid2yodea7N9w4uADVzk9KhprPZMPADqT/PIvph/8oGauE+e4Ntt+xob76ESaHjORBLzi+cwILLgIMYM6YkXTM2EPYv9eRpHxQeVp9hfGZ+3GQuzQIIYQQt4y0xNWVAmUB8IeeeBM0vv8V5rTtS0DxBNWb0/gFlgx8had8tPha3uFrN85y5rIJUOFWtMrIHs7+aYKmQbzadyR/qa/sbi1HTi71lGVCCCGEqFPSElfrLC1x+xeg2qVoiQNat5/P3L4tKDN/yzrMqshl/A+AkSycPIAAZZ1C1nUbv8KaIeYxbaUY9Xy54U3+XZhU1h/JwhEDCFAr6gFwjd++mso7yYriZpGYJgVRT1rihBBCiFtGWuJusbMn3+adb38hKd1UdmtddSSvZf3/9CRnm4rLTNdI1n/Pqs+tEjiAa//ira3bOHgxA1O+VbkQQgghbmvSElfbPNdjeqk/lNMSZ5csLXHsmY5qd5QyKoQQQog6IC1xtcllIgVDgiwL415RRu3XNfOSKfk9ZpSxgLEQQggh6oK0xNUK8zi4vMJ/FiSiXtYHB0PJWvarPwUT1mNsXlziJOPjhBBCiDolLXG1zOGqHvVnU+6gBA5gNw4bl6I+l4lDTY3jE0IIIUSVSEucEEIIIYQdkpY4IYQQQgg7JEmcEEIIIYQdqte6deta6U51dHRUFlWbj48PBoMBg+H2H1gWHByMXq9Hr9crQ0IIIYQQNabSlrjmzQp4efQ13n3WvC34WwE9y7wVgBBCCCGEqCvlt8S1NrJxylV6NstWRiBfw7kfmvCPdY6cUMYspCVOWuKEEEIIUXvqtW7d+obRaCxR6Ncjl8iXL+NX5g09Czly/VxjprzqzG5lqIbZ0+zUwYMHc/LkSU6dOqUMCSGEEELUmDK6U/NZPOlqJQkcQD7OrZJ552VZKEwIIYQQoq6VSuKCJmUR5GnrndDzadzDwHw3ZbkQ9kcXPouYmCXs+rAf/sqgqH0t+xHxzRJivp3FvEeVwbrl91g2Bz/PZqJGGbn1JoancHBeHn7KgBDirqNI4gqYGJhRsqgyqmy6/U1ZKIS90aLr6gWAum0n5JK+BYI7oXUFHL0I7KdVRqtIR0TMEmKstwidslLZ2l1n/bSrNHYEZxdl8Fa7QRO3GzTueYmdksgJcddTJHF5+DUpWVI5I35aW1vuhLhd6Yn5LRUAw7Ff+T9luBZNiVAkG1Zb1Fs3m8zYaNAwvvhqERFTlYE6FH0UfQ5gvML+PbdoYpAmj8g3ktHiyeZ/urHyqrJC7XG9vxdPL5/Lh9sX8+Gyh5Vhi3osmNmIzeec8OiZzuLHlHEhxN1EkcSVPVFViLtBzPxF6HRhhEyPJUEZvNP5NsWngZOytG6d38Pkx8PQDVjCwu+UwaqKYbIuDJ0uDJ0uGltTwokz0ghq6IR+hwcz62hukmufvkxaOY93X/87Qf7uynAZ6jHzg4YkGrMJmnB7dvkKIeqGIolz5EpmyRJbZKSVGlonhKiSC2wpSjqKt5C5tqYf4qYF5BLa8xr84cmCNfWU0VrSjEFPD6SrrytkXyD638ew6SP4lDMrY93BI43QZ+XHtxB3q1JLjEwLv8KMLjklKlVMw+5FjRj7i7K85sgSI7Xo0dFEvRbIpa1h/GNfP+aF6Qj0cQXySD0WzcI5ezhktTyf18PBLJraD62XudXGmHqB/du/ZGnkFZSr+Gm6dmfGNB09/L1QOwL5OSQc+IYlcw8UrS84JWIJw7RZ7H97PrOtWl90b4Uzu5c7+q1hTF5tXZbKFt1H7B8/mhmDOuGjAfKzOLH5I2attT4GJwJHD+bFwffjbzlWDEns3xzJwhLHqiMiJpgSnZb6aHSTY6xL0Dw7mS3PaOHEdga8EFsiBp1YGhVKoFrPF8MiWGfZua3nynwOLrBFt5KPrMpLcyJwcDDjnrwfbWN3yznNIzXhV758dwtbTirru6KbPppxD2vx0RQeg55dy9ey4qe8sl+7UsYhFg6JpOhsNNby4tzB6No3QWN5fkOynpjVGyz7tKjCdVX4XhcrfT0UaaxlyvRgdF198XK1vKaMK+h/+JJZKy+UugbNLK+zjPfV2og5KSzuY+R45D0M3KiMArzNMzEjCDi9mUVbXRg2NRitlzMA6aej2PTqS1wt+wAq5Df9Oca6HeTj5Qe59OAo3p7eFY/z/+G5V35QVi1JY2Rn5J90zGzMzKfrs1kZt2geupSlIS3h3A7eeHUDp5UVhBB2q1QT2sr/cydZWViR8xo+qcUETtQNjTaU9e8+bvmiBXDC677Hmf2Kb3Gd4NFEzNEVJSUAaq8W9Bn/Mu9ONU8KKK47jPXvDKNPS0sCB+Doin+vYJ6+qZmHrmjfnc3S0ZYEDsDRnQ6jxzOjV3Et/0lTWDi+e3ECB6Dxpcf44TxdXGIzw9aj6I2g1nbiKWVwUCCtNWDUH+VLy5d4Vc6V7foxZVo/OvhYEjgARye8WnZnytzB9ChR14spH85i9qB2RQkcgNpLS8gz/UrUtJmmHQs/nEzIfZYEDvPza3zaEfLP2SwMLt0da8t1VRW66aMZ1qtFUQIHoG7QhA6Dp7DomdLPb7sCgtsYwOhGbJkJnBXfAbwwJ6QogQPwbBvCM+HTSlSzVeLyD5m/8CCXylhXvUIGNbG/q8E7l+D7lcFius4tUQGqVn0Z9IAyKoSwZ6WSOH5x5dWvPbmuLC9LriebP3ZG2S4h7I9P1054GS4QtWQ+Ibowhi0/igHw6hREHwC0zJ4UiBdZHPp0JWNDwtDpwpn96SEuGZ3QBj9OSNHetMye1B0vRzCcjmHpc+HodGEMe24jW+KSymktsVUTAru6m/c7dhY6XTgr4rIALzoGF7cp/a1bC9RcIeYN8+vR6cKZvOwbDiUpW5ltHDtliOX7ozmgDqDnMyVDIQ9p0ZDD8e9iLa+tKueqUAuGlZrYEM7CEglvHlnJp9i1unCfYQybtZ1DqYBPJwZY5Wb+U0cT0tbVPEmg8BhC5jNv9R70qYUtZlavfesFAPRbFV26Vq1wIeGj6eEFxkuHWDfL/J6GjF1L1OkcwJ0eIx4ptTRL5dcVxMydX/R8C/dlKfagYEwlYd83RdeULmQ+S6OTMOJEh169lbWrwIRfU+APZyrL4dB4oDEm88val3hT15clK38lHdBoe9FcWbeW7T7vAmThV0FyFnPkPCbAlLCPGPnBLcQdpXQSB+z+tAFLf6lk8TdTA6L+2YCZZ5QBYZdSD7H0qZWsiM7CAKTuiOV4BuCoQg3waHc6NoDUPWuZ8dkFEgwAOez/LJLPf8sCTQCBhUnEk0EENgDj+WhmPRfNrtPmxCn19FE+enXtTQ9aT923lqeei2ZXQh6QQ9R3egxQ3DoFZBnzLIlde1prAHLQ79zDjNC1lXRZli9q+1FScULbPciqtBN92rpC8lG27LAUVeVcVckeZoxcy9KthfuE1AOx7DptTnzU6sJ67gzv1QI1Wexf/h6zC4/BkMXerd8wedaeoj3aLpA+HVzBqGfL5Ei+OGB+Tw0Jp1jx3BZz16i/tvTSLJVdV1UUM38lY+fuKbqmMGSxa8lR80QUx5toidPl0QTITHYkURkrJZNflg9lV2QUkEju9mj0GUCDJjS2qvWX8C/ZuXNnqe3L8L9Y1bo5sYkqrgNNmpW/QsDFjTMYOXQoI19ew6/KoBDCrpWZxAF8ssiTX8tt3nckeb8H0yWBu2MYTh9gV4kmMj2zh1i1xGi90ABe/V4qtQzGjO7ugCuNLM0w/v5NUQMJcTHl3lu3+rI4u+dUyda87yIJUUwC+OLDrzlhcMKn1zCWRi1iy/pQZj+jpbodmQDsi+V4sqJL1dKVmnoilv2FZVU4V8XKmtigHBfmRODoYazfsqjEPkuOJwPQ4uMFZOiJibYap3ZTvHB3BRL0RWP+ih3lUII5afZXdJVXel1VVWMtLy4PI2qX9XmtZFxfVeTbMKEh4xiHoitP9epERj3bek2EEHekcpM4cGLX6fqAI+S6cL1wywdwI25bBQ8Vd7VGVuOVbpmTsbwQEs7s1Xs4lJCJxrcTumcns+WbaUxpr6xsqyTW7Usq0aVq7kpNYu9nScrKNa7D1DLG+ZXJFWerVsm6pLgNc82yHpNXnWY8Gzi71txMz//OH87AgQNLbcPn/1dZtfpu0fsshLg9VJiJHU9xApyJ/bgpbZ8yb/9OAHAg465bSOsul5yJEbi0s3j8UsltFi98Zq56KNncveejDaRaS1hp2tGnZeFA+JuRw/6t3zBj7CIGDJnPip9SMbq2IGRCoLKizRLWHkVf1KVq7ko1njjAuvNWlapwrmzny98faoGaPBKi1xaNiSt7HNkVUgxAA18Cq5iwarzKm3CQY07Q/LWMU76pmkAC/Z3AeJmz1emptdXgfgR6AalHi8bkmbcKxjLaKsaJK4Bz4zysO8tvd36tTHgAV/6QbE6Iu1GFSVxsboVhcTeJ1qM3gs+jU1g6qRNa68E/St/pSQA0XYcT8VYQffzNLUca/3ZMeWc8s6263M4mZwHudAzuTqDGvCzJwogx9PGprLWpIlrmrZnGwkmd6GB5bgx5HD+ahBFQu3ooH2A7wx72n8gzd6k+2onWmjz0cQdKdu9W5VzZzBWNK0AOKfokUg2g8W/BsLDxTOmq7E7Vc+h8DtCEAW9P48WBXpZuZFd6PPk4EYvKGJBnSTx9ugXzVPeyEugDHNLngVrLsA8eZ0Bbcx2NfztmvD+YQMvs3Cjlw2qSxjyOzphxBf35HPNM5YH9WLimdw10p6pIvAx4GwlWJqm3sdC25kkliRVMWHB7Yg4bv9zGti9W89LDlYx1FkLYlVLrxJXwbAbxTxiJXdGY0ZZf2IuXXmBES082D23ATGX9WiLrxNUiy3pe7IuodGHZDlOn8e6TLcoekK5YT6z8uoo1wAaFEjW9U6kWO4MhB43GtYx14ih/DbEiWhZ+NZkeDZTlAHmc+PR1XvjMMlZs6jRinmyhrFTEUNZ5GRRK1HQthqQ8fBrEsyJkY6nkpfzXX/pc2bpO3FPLFzHuvvKSW8V51bRj4frx9ChrEGBZ66Vpgvhgy2A6KA/Y+ljb64hYFoxWWQcg5wJbwlbyUeFadTZfVxW9V1jGClrOS7fH+eKdfvgoqxSyfl3VeF9tXicuI5ZPhjzFpaLyiQz4ajYPNNDzje5RDpV4TOXazp7L9AeVibiV8taMs3GduJ6vriWsh6f5H+d2MPTVDcoqQgg7VXFTWwFAHq0fzmH5+FyWj8/hvkZAptPNd18Iu3Ni9UfMXnuAhKIlKspXZl1jKgl7ovncOgHbEcnS7XpSCyfXGVPR74hg7Gd6yvlpYQM9S1fGcOJSFsbC/ebnYbh0iqgF84sTuOracYizBld8fN0xHI0tlcBR3uu/SV/M+Yio06nFr8mYRULcNyzcYV4epATDKWY/F0HUsSsYik6k5Rx8VkafpyGWWQuiOXFJuQSLlZMx/GPWFvaetzqG/BwuHYth4VirBK62xH3Dgo8PkWAoPKd55sWLV25hf4aibjVs/sKNRIx01OUwQhm8DfUfn01HtSOJP7uWm8AB/PyvHzlvsvyj4k98IYSdqbglzi2P9e+k0N8nt7gsvz7Hv/Jm4L9smMVVQ6QlTghRFya+mcycB/NIjPKhz+q6+4yrsgAj36/4E212YxaMqs8nyngRN5r3CGbClNF08oAre+YxdcVRZSUhhJ2qOIm7TUgSJ4SoE5o8ItclEeTSgKhXPZl+W/4Z32DxqsuMaOVE7DJvRn+rjFv0m8PGF++naBRcys98+PISYspdOkoIYW+kcV0IIQoZnJi5xptMdQYhbxiY005Z4dab9mYKI1qB/qtG5SdwVkyZVzj9wxrmSQInxB1HkjghhLCS+K0bA5d5k5zvwJWLyuitdz2/Hsk/ezP240q6e/csIHToUEaOncrsVbs4KgmcEHeceu3atau51S1riY+PDwaDAYOh1FLxt53g4GD0ej16vUz9EEIIIUTtkZY4IYQQQgg7JEmcEEIIIYQdqteiRYvbvjtVZqcKIYQQQpQkLXFCCCGEEHZIkjghhBBCCDskSZwQQgghhB2SJE4IIYQQwg5JEieEqDJd+CxiYpaw68N++CuDdwC/x7I5+Hk2EzXKSFXcYPGKq3w/6bafOyaEsFOSxAkhqkiLrqsXAOq2nfibMlyLpkQsISbGepvGFGWlm9XuOuunXaWxIzi7KINVoLlBA9c8tEMuSyInhKgVksQJ6NgTr3fDab9pOV2+XE6XTUtp9W4omt6uypq1pDmaBeG0Xz0KtTJ0t9Ct595Vp2k2Whm4HemJ+S0VAMOxX/k/Zbg6uvXjgy2L2PJPrTJStzR5RL6RjBZPNv/TjZVXlRWqwODAlJe9iU3LQ/t4Jotvw/uwCiHsmyRxd7v+oWjfGIWfXyPUjpYyRxUav260GjesjpKq+rj4NEKtVikDd4+mfni4O9vNH2TM/EXodGGETI8lQRmsDi9f/L2ciq/Bcnw0OQydzrxtqYU7202ckUZQQyf0OzyYWRNLPRqcmLm+IZnqdEa8dJ3+yrgQQtwEe/nOELWiOQ2f7IYbJjLitnL85RkcHj6dw2Nf5/iG3SSnm5QPEOLOFZBLaM9r8IcnC9ZUcnP5Kkj81o3Np5whIIMXHldGhRCi+uSODTXMvu7Y0Abvtc/j636R82OXkJmtjBdSUX/BIlq3huTNM/hjmyL82DjaTuiC6uxWjs3Zay5za4rrpNE0eyAAjQrARG7SERLWbCLnuDk5VM98k/bdPErsSunqzukkbbAq6D2QZmP64+2poh6Qlx7Pn7siSd1+2VLB8ppSdnLseGu0wW1wJoWLqxdhCAyjVe+mqHLj+f3N9zCctdqvrdrPodEzI/C5xwOVIxTkX+fan7EkrRtLTlHL0GKabxyBd1YsJ54fjbHowRPxXjWH5u569KGPYCisVxQvQ6l92GZKxBKGaS+wJeRr1O+MZoDWy9zKlaonavlaVvyUV7Ju40MsHLIdTdh4nn60BV6OgCGJvWsjmLcjx1JTR0RMMCU6PPXR6CbHWJeA9fOPjEb9z2HlPL+WhV9NpkcD5aOtXWCLbiUfKYutn6OMuO6tcGb3gr1vf8TZfqMZ3t0XjeU17Y/cyOzN5u5gayPmpLC4j5HjkfcwcKMyCvA2z8SMIOD0ZhZtdWHY1GC0Xs4ApJ+OYtOrL3HVoHyMRc9rHJyXTONT99DnJTWJyjgAzRnzzlIGtYLzX7/BjE9PKysIIUQJ0hJ3V7tGfi5Ac5rM6ImjmzJeyMS1X8+Tjwqv+/sog7h0b4MLOVzeY0ng8EAzN4w2vQoTOAAVLr7daDPmJjqU+oeinf4YjS0JHICTZwB+o8LwHdOoZF33nvgPbIOLI9RzbIT3k2G07N0UNVDPJQCfIW1K1reFdjHNZ0zEr7k5gQNwcHRG07w/bWd9j+YWD+cqzQvd+mmEtLUkUABeWkLmTGFKS0VVtTsDIsJ5MdiSwAFofOkzNZRx1Z6h2YQBayaXfv6w0YQoatYOVwKnvcy4XpYEDvNr6jEplBeVr58CgtsYwOhGbJkJnBXfAbwwJ6QogQPwbBvCM+HTSlQr4WcXjl0G7s0lVBkroqNTKxWgomXQIO5XhoUQQkGSuLvaRdK27iXDBG4dR9FxdTg+U7vhpMiHANj2E5ezwTGgM/VLJHvdaNDGFVIOk/ZtYVlPGrRSwaW9xV20U+dzesdhMrKLu2iNi183x4avIikLyIrj5PDpljLzVtwK1wbvp7vhRiaXNr/HkbHTOTz8NY5vjiPDpML7LyGUmEjYqBHu6XGcnLqTVMDVpymqxJ0cW/wzBsCtUYB1bRsE0WDiCLxVkHM+ihMz+/BbaAC/Ld3IxavXQaWl+ZAKvsTLNJOLoQHm/USbm/GuRlv+XbhVoxWumDteXnlc2red2SPD0I2MYFdCHqhb0Gewe8mqrloCtRTXDVlC1Pk8UGvpUTTZIobJlvFoOl00lQ9Jc0WjyePSvi3MCAkjZGwkhzIATQA9ggH0zB5i2d/bhzAAhn0RRWPezFvpVjbbOaHROGE4HcPCkWHoRr7PrvN5gC+BA50UdU34NQX+cKayHA6NBxpjMr+sfYk3dX1ZsvJX0gGNthfNlXWLOHD8kguor9NRp4wViuHoORNg4uIvMfyqDAshhIIkcXe73VuJf3EV509d5rqqEU37h9Jx9VK0iwaiLpHMHSbtSAqo2tDwSasJCAO74OUCaXE7Ke6gy+GGCWjUBs/u5qUoSEkh9/N1xP9zd/Fjq6JvTzzdzV/yl7fFcyMbIIe8bRv541gmuLVE08v6ATlcjtqEMQUKAEghKfJb8uNSyLWuZqvmoXjeA6Tu5vc3pmP809IhdiScq8uiSQNcWgTV0UQQW+WRsH0JT82NZX8ykKxnaeRRDICPVtnOk4d+q1VdwxVWxCWZQ5VMNqhI6r4NTJ57gEMGMCQcYteJLMCdRqVawmqHUR/NrOeiiUkGkpNYanlNXj6KJF6XRxMgM9mxnK5Oa5n8snwouyKjgERyt0ejzwAaNKGxsqqV2D/UwDWatFJGCl1kw6sjGTp0JNM/lhROCFE5SeIEpJwhM3whpye8zskdh0nLVuHW6jHavfcymtbF1fK2xpEGNOpY3CVaP6gDatMZrm7KLK7IXi7vOEOOqim+o2bTedOb+M99kvo3s2RJy0a4AZpeYeZlUKy29oEegCvqZlb1s06QttNqYkZWPNlxVvGqauGBGsi+EEup6R4XfyDzKuDe5DZL4nL487Ri7Nd3l7kE4KhsiUri0GpF3dUr0enCmLy6ZLHtsji75xTlDROrCwm/xXBCWViRfBsmNGQc41B05ameUmyOfNwKIWqWfKqIYtmZGD9fR8K0hZyPN1HPJQDfEV2K44l7yUiCegFdaOAHuPXBM0BF7smfuKaYFJG/eRVnpi7hzO7DpGe54tm5D62nv037RY/dTMOOELXK2bX25nn5OdbevoUQdydJ4kRp2ZfJ/P4EuYCLR1OrQCYZP58hn+Y0+KsHPN4ZL1UKybsOW9WxknKRnNXrSJg0gyMvbyQp2YS61cN4D1RWtHBxR9k+VORqBkYgLaZwHJ1yK2PWbE3KuE4+4NYiiFKr2WkH4OENXE2kcB5nmfoG4VHJHQDUDWp3yL/mWS3+gNFQenbm7UDdoImyqG7EOHEFcG6cR5AyVkOCm5mA+lw5p4wIIUT1SBJ3N+s7Cv/3xuExsA31isa/uVKvVx+8QzrgAmSnxJd8zGbzBIeG3Qbi1a0NDklxpCm7KfuOwu/dUDS6ptQrnASRG0/2nzmAK04NFfW5hCkbULXEe1qH4sdY++9ZMkzQsO80Gj/dxep4a0ofXlr1L7Zt28bGd8bQVhk+Fk1GKuDVn4BZ81Hd42cu7zyfJtOCaQhkno0mHwA9uVmA+300eiIE8MPxiUhajumPR6kM0CI1EyPgcd8k3Dp3VEYVKjlWK+rGXphHJbrS45nRRIzQoiaH43sOKaveWvpMDIBa25vZwe5Ue0JstalIvAx4GwmulScvIMj/GhidOV56RRYLNwbN2ci2bdv416qX0JX1dyCEEFYkiburqVD7dqHlmOfpvLpwjNnbdH75SXwbq7iRfZiklWcUjzlMxqlMaNST5gGQ8tu3lO4kUuHs141Wk2fTeb1lv6vDadPZA0xnSNuurJ9J9rkUbqCiYd/JxY/5cjm+YyxVsvdy+dt48lRNaTZonNXxWra1oTc3Hq1fX+73MWdYbq060VMZZzMpX8WSDbi1D6Xj4r103RhP1xmhNPOCgtRYLm7YbKn7CYYL1wEPmg5bTteNe+k0LIgGqkxyril2W+jHONJNgHtHWs/Yad73xni6roos/boqPdZC7gSOn8WWmCXExMxn4bOB+KghdV8k83Yo69pg6jSre5Za1ovTBheVRb11E2usnD/E8UuAugm6sHCiyrw3qo4Iq/umDtMCtGBYYdlXoyl34melHIg+owF1Nt2GKGM1oGcu9zUFfnepYPZrJ9rea87cVD59GDBUGRdCiJIkibub/biF+A27uZycidHchARAXm4KqXH/5tSMdeSUsQCw8fsTGIB6pjOkbS01zB9+3ELCtyfIzDIVJXg3TJlknvqWky+uKjV+DiBv+SrO7ovHUMbuCuVvWMmpTT+Tmm6ytHjVoD0/8usl85NnnzvKz8o4wI+jObs6istXM4uev8CUScqBTzg+ezRGqwQtd+UCfj9fXM+Uoef31aO4cOF6cSVr1xbwx4cl910uW461DMaMK5zYEcHkubd2skHZklj41hb2nk8tcS3Wpc1fuJGIkY66HEYogzdpxmADjXHl1+/LW+gX4Gc27TlfPHFGPp2FEJWQOzbUMPu6Y0M1DRxH2zFd4Mg6Tr9Vzng4cUuZ72aQxf635zP7O2VUlGfim8nMeTCPxCgf+qy2YaaqLXTXOBKWjPOZexj7oppYZbyQW3N6/m0Cz43shBtX2Dt/Ku/Ln5cQogLyW09UgStOQ8fR6ukuuJgu8udm+YYRd5ZPFjckNtOI34AMlrdTRqtBk0fkhFQ8jJ78+8PyE7g+szaybeNywkZ2wg1I37+VT+TPSwhRCUnihA3a4L3WPF6u44guaBxNXP12HZnVufeoELczgxMz13iTqc4g5A0Dc24mkdMUsHzxVYIauhC7sgEzK2uczzeRfeU0MWvn8eI7MZQx6kAIIUqQJE5USV7WRZI2LSFpQ4oyJMQdIfFbNwYu8yY534ErF5XRKjDUIxdH9F81YnTRLenKtndRKEOHjyR06mw+/L+jksAJIWwiY+Jq2F0xJk4IIYQQt5y0xAkhhBBC2CFJ4oQQQggh7JB0pwohhBBC2CFpiRNCCCGEsEOSxAkhhBBC2CFJ4oQQQggh7JAkcUIIIYQQdkiSOCGEEEIIOyRJXK1YTN68eHLnxWN8ZS/5bfsrKwghhBBC3BRJ4mpZgYcfphHLyW+mjAghhBBCVJ8kcbViJk7zAnBZOBP10Uxw8KCgY6iykhBCCCFEtUkSV5uMm3HYGYsTgJOzMiqEEEIIUW2SxNW23AxliRBCCCHETZMkrq7ImRZCCCFEDZLUotZlghHyO4VS0DxIGRRCCCGEqBZJ4mrdApy+Po6jkx/GCZHkzosnr5uyjhBCCCFE1UgSVxeM15UlQgghhBA3RZK4WjeN/CfuJz9Pj3rFQFzmBeAUp6wjhBBCCFE1ksTVOj9uaMDx6GYcUo8rg0IIIYQQ1SJJXF0pUBYIIYQQQlSfJHFCCCGEEHZIkjghhBBCCDskSVxt82zCDWWZEEIIIcRNkiSuNrlMpGBIEPkAuVeUUSGEEEKIapMkrlYsJm9ePLmvzcHo7wwFiTgejFJWEkIIIYSoNkniapnDVT3qz6bgYFBGhBBCCCGqr16LFi1u+yFbLVu2JC0tjfT0dGVICCGEEOKuJC1xQgghhBB2SJI4IYQQQgg7ZBfdqUIIIYQQoiRpiRNCCCGEsEOSxAkhhBBC2CFJ4oQQQggh7JAkcUIIIYQQdkiSOCGEEEIIO2RHs1P7s+CRV+nuDuSmoT+6irCL/0NuhCCEEEKIu5F9tsS5NET74Kss8fFTRoQQQggh7gp21BJnUc+PAffOZ1pnH9QJ23g0bo2yhhBCCCHEHc/+WuJuJLLr3DecyAEclUEhhBBCiLuD/SVxAKRizFOWCSGEEELcPew0ibOop0ajLBNCCCGEuAvYaRKXisEI3PMQbzR5EC9lWAghhBDiDmd/ExssNB6vsjyoP/6u5n8bTr7D4FO7ldWEEEIIIe5IdtoSB+QZMSrLhBBCCCHuEnbaEufHC70+ZlDTNA7smcmitERZ9FcIIYQQdxU7bYnT4uMG/PmTJHBCCCGEuCvZaRJnccMoCZwQQggh7kr2ncQJIYQQQtylJIkTQgghhLBDdprENUXjoiwTQgghhLh72F8S5/ggozsNooMKjCYZESeEEEKIu5MdLTHSnwWPvEp398J/Z/PbnjGEpWaXrCaEEEIIcRewv5Y4gGuX+G3fm/xTEjghhBBC3KXsqCVOCCGEEEIUss+WOCGEEEKIu5wkcUIIIYQQdkiSOCGEEEIIOyRJnBBCCCGEHZIkTgghhBDCDkkSJ4QQQghhhySJE0IIIYSwQ5LECSGEEELYIUnihBBCCCHskCRxQgghhBB2SJI4IYQQQgg7JEmcEEIIIYQd+n84fWGl20/DagAAAABJRU5ErkJggg==;" vertex="1" parent="1">
                    <mxGeometry x="-150" y="30" width="457.97" height="170" as="geometry"/>
                </mxCell>
            </root>
        </mxGraphModel>
    </diagram>
</mxfile>